<?xml version="1.0" encoding="UTF-8" standalone="no"?>
<svg xmlns="http://www.w3.org/2000/svg" width="470" height="470" viewBox="0 0 470 470">
  <g fill="#000000" stroke="none">
    <path d="M 250,64 L 221,131 L 247,265 L 192,177 L 121,169 L 159,241 L 248,287 L 248,363 L 179,266 L 121,279 L 248,385 L 263,439 L 263,385 L 390,279 L 329,268 L 264,364 L 263,287 L 354,239 L 390,170 L 323,174 L 264,265 L 290,131 Z" />
    <path d="M 398,32 L 296,36 L 437,138 L 468,215 L 467,301 L 418,398 L 292,484 L 414,426 L 482,309 L 479,191 L 440,114 L 372,54 Z" />
    <path d="M 218,27 L 103,80 L 30,200 L 32,318 L 74,400 L 139,456 L 113,479 L 215,475 L 140,407 L 145,439 L 69,365 L 41,284 L 46,201 L 92,114 Z" />
  </g>
</svg>
